<?xml version="1.0" encoding="utf-8"?>
<svg version="1.1" x="0px" y="0px" viewBox="0 0 100 100" style="enable-background:new 0 0 100 100;" xmlns="http://www.w3.org/2000/svg">
  <g>
    <g>
      <path d="M5273.1,2400.1v-2c0-2.8-5-4-9.7-4s-9.7,1.3-9.7,4v2c0,1.8,0.7,3.6,2,4.9l5,4.9c0.3,0.3,0.4,0.6,0.4,1v6.4     c0,0.4,0.2,0.7,0.6,0.8l2.9,0.9c0.5,0.1,1-0.2,1-0.8v-7.2c0-0.4,0.2-0.7,0.4-1l5.1-5C5272.4,2403.7,5273.1,2401.9,5273.1,2400.1z      M5263.4,2400c-4.8,0-7.4-1.3-7.5-1.8v0c0.1-0.5,2.7-1.8,7.5-1.8c4.8,0,7.3,1.3,7.5,1.8C5270.7,2398.7,5268.2,2400,5263.4,2400z" style="fill: rgb(29, 176, 39);"/>
      <path d="M5268.4,2410.3c-0.6,0-1,0.4-1,1c0,0.6,0.4,1,1,1h4.3c0.6,0,1-0.4,1-1c0-0.6-0.4-1-1-1H5268.4z" style="fill: rgb(29, 176, 39);"/>
      <path d="M5272.7,2413.7h-4.3c-0.6,0-1,0.4-1,1c0,0.6,0.4,1,1,1h4.3c0.6,0,1-0.4,1-1C5273.7,2414.1,5273.3,2413.7,5272.7,2413.7z" style="fill: rgb(29, 176, 39);"/>
      <path d="M5272.7,2417h-4.3c-0.6,0-1,0.4-1,1c0,0.6,0.4,1,1,1h4.3c0.6,0,1-0.4,1-1C5273.7,2417.5,5273.3,2417,5272.7,2417z" style="fill: rgb(29, 176, 39);"/>
    </g>
    <g>
      <circle cx="22.9" cy="21" r="8.1" style="fill: rgb(29, 176, 39);"/>
      <path d="M34.5,38.9c-0.5-4.1-3.8-7.2-7.8-7.6h0c-1.2,0.5-2.5,0.7-3.8,0.7c-1.4,0-2.6-0.2-3.8-0.7c-4,0.4-7.3,3.5-7.8,7.6     l-0.7,5.9H4.7c-1.2,0-2.2,1-2.2,2.2c0,1.2,1,2.2,2.2,2.2h35.9l0.2-1.8c0.1-0.9,0.3-1.8,0.6-2.6h-6.3L34.5,38.9z" style="fill: rgb(29, 176, 39);"/>
      <path d="M58.5,65.1c-2.4-0.5-4-2.8-3.7-5.2l0.9-7c0.6-5,4.3-8.9,9.1-9.9c-1.4-1.6-3.4-2.6-5.6-2.8c-1.2,0.4-2.5,0.7-3.8,0.7     c-1.4,0-2.6-0.2-3.8-0.7h0c-4,0.4-7.2,3.6-7.7,7.6l-0.9,7c-0.1,0.9,0.5,1.8,1.4,2c1.3,0.3,2.6,0.5,3.9,0.7l0.9,16.4     c0.1,1.3,1.1,2.3,2.4,2.3h7.5c0.7,0,1.3-0.3,1.8-0.8l-0.6-10C59.6,65.3,59.1,65.2,58.5,65.1z" style="fill: rgb(29, 176, 39);"/>
      <path d="M55.3,37.9c1.4,0,2.8-0.4,3.9-1c-0.1-0.5-0.1-1.1-0.1-1.6c0-3.3,1.5-6.3,3.8-8.4c-1.1-3.1-4.1-5.3-7.6-5.3     c-4.5,0-8.1,3.6-8.1,8.1C47.2,34.3,50.8,37.9,55.3,37.9z" style="fill: rgb(29, 176, 39);"/>
      <path d="M73.4,70.6c-2.4-0.5-4-2.7-3.7-5.2l0.9-7c0.6-5,4.3-9,9.1-10c-1.4-1.6-3.5-2.6-5.7-2.8c-1.2,0.4-2.4,0.7-3.7,0.7     c-1.3,0-2.6-0.2-3.8-0.7c0,0,0,0-0.1,0c-4,0.4-7.3,3.5-7.8,7.6l-0.9,7c-0.1,0.9,0.5,1.8,1.4,2c1.3,0.3,2.6,0.5,3.9,0.6L64,79.3     c0.1,1.3,1.1,2.3,2.5,2.3h7.5c0.7,0,1.4-0.3,1.8-0.8l-0.6-9.9C74.5,70.8,73.9,70.7,73.4,70.6z" style="fill: rgb(29, 176, 39);"/>
      <path d="M70.2,43.4c1.4,0,2.8-0.4,3.9-1C74,41.9,74,41.3,74,40.7c0-3.3,1.5-6.3,3.8-8.3c-1.1-3.1-4.1-5.3-7.6-5.3     c-4.5,0-8.1,3.6-8.1,8.1S65.7,43.4,70.2,43.4z" style="fill: rgb(29, 176, 39);"/>
      <path d="M96.6,58.7c-0.5-4.1-3.7-7.2-7.7-7.6h0c-1.2,0.5-2.5,0.7-3.8,0.7c-1.4,0-2.6-0.2-3.8-0.7h0c-4,0.4-7.2,3.6-7.7,7.6     l-0.9,7c-0.1,0.9,0.5,1.8,1.4,2c1.3,0.3,2.6,0.5,3.9,0.7l0.9,16.4c0.1,1.3,1.2,2.3,2.5,2.3h7.5c1.3,0,2.3-1,2.4-2.3l0.9-16.4     c1.4-0.2,2.7-0.4,3.9-0.7c0.9-0.2,1.5-1.1,1.4-2L96.6,58.7z" style="fill: rgb(29, 176, 39);"/>
      <circle cx="85" cy="40.8" r="8.1" style="fill: rgb(29, 176, 39);"/>
    </g>
  </g>
</svg>